<mxfile host="app.diagrams.net" modified="2023-06-06T12:20:11.566Z" agent="Mozilla/5.0 (Windows NT 10.0; Win64; x64) AppleWebKit/537.36 (KHTML, like Gecko) Chrome/114.0.0.0 Safari/537.36" etag="B89v_etYj4ChSdjSx54T" version="21.3.7" type="github">
  <diagram name="第 1 页" id="ZZIlOzNQOrieBUVhu7r0">
    <mxGraphModel dx="1290" dy="541" grid="1" gridSize="10" guides="1" tooltips="1" connect="1" arrows="1" fold="1" page="1" pageScale="1" pageWidth="827" pageHeight="1169" math="0" shadow="0">
      <root>
        <mxCell id="0" />
        <mxCell id="1" parent="0" />
        <mxCell id="3dBPweTHAA0Xvc5IrB5U-8" style="edgeStyle=orthogonalEdgeStyle;rounded=0;orthogonalLoop=1;jettySize=auto;html=1;exitX=1;exitY=0.5;exitDx=0;exitDy=0;entryX=0;entryY=0.5;entryDx=0;entryDy=0;" edge="1" parent="1" source="3dBPweTHAA0Xvc5IrB5U-1" target="3dBPweTHAA0Xvc5IrB5U-3">
          <mxGeometry relative="1" as="geometry" />
        </mxCell>
        <mxCell id="3dBPweTHAA0Xvc5IrB5U-1" value="" style="ellipse;whiteSpace=wrap;html=1;aspect=fixed;" vertex="1" parent="1">
          <mxGeometry x="45" y="165" width="30" height="30" as="geometry" />
        </mxCell>
        <mxCell id="3dBPweTHAA0Xvc5IrB5U-2" value="&lt;b style=&quot;border-color: var(--border-color); font-size: 14px;&quot;&gt;开始&lt;/b&gt;" style="text;html=1;strokeColor=none;fillColor=none;align=center;verticalAlign=middle;whiteSpace=wrap;rounded=0;" vertex="1" parent="1">
          <mxGeometry x="30" y="210" width="60" height="30" as="geometry" />
        </mxCell>
        <mxCell id="3dBPweTHAA0Xvc5IrB5U-9" style="edgeStyle=orthogonalEdgeStyle;rounded=0;orthogonalLoop=1;jettySize=auto;html=1;exitX=1;exitY=0.5;exitDx=0;exitDy=0;entryX=0;entryY=0.5;entryDx=0;entryDy=0;" edge="1" parent="1" source="3dBPweTHAA0Xvc5IrB5U-3" target="3dBPweTHAA0Xvc5IrB5U-4">
          <mxGeometry relative="1" as="geometry" />
        </mxCell>
        <mxCell id="3dBPweTHAA0Xvc5IrB5U-3" value="&lt;font style=&quot;font-size: 14px;&quot;&gt;用户登录系统&lt;/font&gt;" style="rounded=1;whiteSpace=wrap;html=1;" vertex="1" parent="1">
          <mxGeometry x="150" y="155" width="80" height="50" as="geometry" />
        </mxCell>
        <mxCell id="3dBPweTHAA0Xvc5IrB5U-10" style="edgeStyle=orthogonalEdgeStyle;rounded=0;orthogonalLoop=1;jettySize=auto;html=1;entryX=0;entryY=0.5;entryDx=0;entryDy=0;" edge="1" parent="1" source="3dBPweTHAA0Xvc5IrB5U-4" target="3dBPweTHAA0Xvc5IrB5U-5">
          <mxGeometry relative="1" as="geometry" />
        </mxCell>
        <mxCell id="3dBPweTHAA0Xvc5IrB5U-4" value="&lt;font style=&quot;font-size: 14px;&quot;&gt;进入个人中心&lt;/font&gt;" style="rounded=1;whiteSpace=wrap;html=1;" vertex="1" parent="1">
          <mxGeometry x="270" y="155" width="90" height="50" as="geometry" />
        </mxCell>
        <mxCell id="3dBPweTHAA0Xvc5IrB5U-11" style="edgeStyle=orthogonalEdgeStyle;rounded=0;orthogonalLoop=1;jettySize=auto;html=1;exitX=1;exitY=0.5;exitDx=0;exitDy=0;entryX=0;entryY=0.5;entryDx=0;entryDy=0;" edge="1" parent="1" source="3dBPweTHAA0Xvc5IrB5U-5" target="3dBPweTHAA0Xvc5IrB5U-6">
          <mxGeometry relative="1" as="geometry" />
        </mxCell>
        <mxCell id="3dBPweTHAA0Xvc5IrB5U-5" value="&lt;span style=&quot;font-size: 14px;&quot;&gt;商品兑换界面&lt;/span&gt;" style="rounded=1;whiteSpace=wrap;html=1;" vertex="1" parent="1">
          <mxGeometry x="400" y="155" width="90" height="50" as="geometry" />
        </mxCell>
        <mxCell id="3dBPweTHAA0Xvc5IrB5U-12" style="edgeStyle=orthogonalEdgeStyle;rounded=0;orthogonalLoop=1;jettySize=auto;html=1;exitX=1;exitY=0.5;exitDx=0;exitDy=0;entryX=0;entryY=0.5;entryDx=0;entryDy=0;" edge="1" parent="1" source="3dBPweTHAA0Xvc5IrB5U-6" target="3dBPweTHAA0Xvc5IrB5U-7">
          <mxGeometry relative="1" as="geometry" />
        </mxCell>
        <mxCell id="3dBPweTHAA0Xvc5IrB5U-6" value="&lt;font style=&quot;font-size: 14px;&quot;&gt;选择商品填写信息并兑换&lt;/font&gt;" style="rounded=1;whiteSpace=wrap;html=1;" vertex="1" parent="1">
          <mxGeometry x="530" y="155" width="90" height="50" as="geometry" />
        </mxCell>
        <mxCell id="3dBPweTHAA0Xvc5IrB5U-7" value="" style="ellipse;html=1;shape=endState;fillColor=strokeColor;" vertex="1" parent="1">
          <mxGeometry x="690" y="165" width="30" height="30" as="geometry" />
        </mxCell>
        <mxCell id="3dBPweTHAA0Xvc5IrB5U-13" value="&lt;b style=&quot;border-color: var(--border-color); font-size: 14px;&quot;&gt;结束&lt;/b&gt;" style="text;html=1;strokeColor=none;fillColor=none;align=center;verticalAlign=middle;whiteSpace=wrap;rounded=0;" vertex="1" parent="1">
          <mxGeometry x="675" y="205" width="60" height="30" as="geometry" />
        </mxCell>
      </root>
    </mxGraphModel>
  </diagram>
</mxfile>
